 <svg version="1.1" width="210" height="150" xmlns="http://www.w3.org/2000/svg">
    <g transform="translate(10, 10)"> <!-- Semicircle indicator card -->
        <path d="M 170.71067811865476 29.289321881345245 A 100 100 0 0 0 0 99.99999999999999 L 97 97 Z" stroke="black" stroke-width="0.5" fill="#64BF30"/> <!-- Moderate -->
        <path d="M 100 0 A 100 100 0 0 0 29.28932188134526 29.289321881345245 L 100 100 Z" stroke="black" stroke-width="0.5" fill="#FEDD3A"/> <!-- High -->
        <path d="M 170.71067811865476 29.28932188134526 A 100 100 0 0 0 100 0 L 100 100 Z" stroke="black" stroke-width="0.5" fill="#F78100"/> <!-- Extreme -->
        <path d="M 200 100 A 100 100 0 0 0 170.71067811865476 29.28932188134526 L 100 100 Z" stroke="black" stroke-width="0.5" fill="#AD0909"/> <!-- Catastrophic -->
        <path d="M 0.3 93 L 93 93 L 100 100 L 0 100 Z" stroke="black" stroke-width="0.5" fill="white" /> <!-- No rating -->
        
        <g id="needle" transform="translate(100, 98) rotate(0)"> <!-- Needle -->
        <path d="M 0 -2 L 0 2 L -80 2 L -82 0 L -80 -2 Z" stroke="black" stroke-width="0.5" fill="white" /> 
        </g>

        <path d="M 110 100 A 5 5 0 0 0 90 100" stroke="black" stroke-width="0.5" fill="white" /> <!-- Centre cutout -->
    </g>
    <g transform="translate(10, 115)"> <!-- Caption -->
        <rect id="captionBg" x="0" y="0" width="200" height="30" stroke="black" stroke-width="0.5" fill="white" />
        <text id="captionText" x="100" y="25" font-size="25" text-anchor="middle" dominant-baseline="middle" font-family="Helvetica, Arial, sans-serif">NO RATING</text>
    </g>
</svg>